# xmcd
# 
# Track frame offsets:
#     150
#     18483
#     41492
#     61156
#     87643
#     115080
#     130541
#     148821
#     162080
#     187213
# 
# Disc length: 2852
# 
# Revision: 1
# Processed by: cddbd v1.5.2PL0 Copyright (c) Steve Scherf et al.
# Submitted via: fre:ac v1.1beta1pre5
# 
DISCID=870b220a
DTITLE=坂本慎太郎 - 幻とのつきあい方
DYEAR=2011
DGENRE=J-POP
TTITLE0=幽霊の気分で
TTITLE1=君はそう決めた
TTITLE2=思い出が消えてゆく
TTITLE3=仮面をはずさないで
TTITLE4=ずぼんとぼう
TTITLE5=かすかな希望
TTITLE6=傷とともに踊る
TTITLE7=何かが違う
TTITLE8=幻とのつきあい方
TTITLE9=小さいけど一人前
EXTD=
EXTT0=
EXTT1=
EXTT2=
EXTT3=
EXTT4=
EXTT5=
EXTT6=
EXTT7=
EXTT8=
EXTT9=
PLAYORDER=
